# Blender v2.91.2 OBJ File: ''
# www.blender.org
mtllib arrow.mtl
o Circle
v 1.000000 -3.000000 -0.000000
v 0.707107 1.000000 -0.707107
v 0.707107 -3.000000 -0.707107
v 0.000000 -3.000000 1.000000
v 0.707107 1.000000 0.707107
v 0.707107 -3.000000 0.707107
v -1.000000 -3.000000 -0.000000
v -0.707107 1.000000 0.707107
v -0.707107 -3.000000 0.707107
v 0.000000 -3.000000 -1.000000
v -0.707107 1.000000 -0.707107
v -0.707107 -3.000000 -0.707107
v 0.000000 1.000000 -1.000000
v 1.000000 1.000000 0.000000
v 0.000000 1.000000 1.000000
v -1.000000 1.000000 0.000000
v 0.000000 1.000000 -2.000000
v 1.414214 1.000000 1.414213
v 2.000000 1.000000 0.000000
v 0.000000 1.000000 2.000000
v -1.414214 1.000000 -1.414214
v -2.000000 1.000000 0.000000
v 1.414214 1.000000 -1.414213
v -1.414214 1.000000 1.414214
v 0.000000 4.000000 0.000001
vt 0.000000 0.000000
vt 0.000000 0.000000
vt 0.000000 0.000000
vt 0.000000 0.000000
vt 0.000000 0.000000
vt 0.000000 0.000000
vt 0.000000 0.000000
vt 0.000000 0.000000
vt 0.000000 0.000000
vt 0.000000 0.000000
vt 0.000000 0.000000
vt 0.000000 0.000000
vt 0.000000 0.000000
vt 0.000000 0.000000
vt 0.000000 0.000000
vt 0.000000 0.000000
vt 0.000000 0.000000
vt 0.000000 0.000000
vt 0.000000 0.000000
vt 0.000000 0.000000
vt 0.000000 0.000000
vt 0.000000 0.000000
vt 0.000000 0.000000
vt 0.000000 0.000000
vt 0.000000 0.000000
vn 1.0000 0.0000 -0.0000
vn 0.7071 0.0000 -0.7071
vn -0.0000 -0.0000 1.0000
vn 0.7071 -0.0000 0.7071
vn -1.0000 0.0000 0.0000
vn -0.7071 -0.0000 0.7071
vn 0.0000 0.0000 -1.0000
vn -0.7071 0.0000 -0.7071
vn 0.0000 -1.0000 -0.0000
vn 0.5883 0.5547 0.5883
vn 0.0000 1.0000 -0.0000
vn 0.0000 0.5547 0.8321
vn -0.5883 0.5547 0.5883
vn -0.8321 0.5547 0.0000
vn -0.5883 0.5547 -0.5883
vn 0.0000 0.5547 -0.8321
vn 0.5883 0.5547 -0.5883
vn 0.8321 0.5547 0.0000
usemtl None
s 1
f 1/1/1 3/2/2 2/3/2
f 4/4/3 6/5/4 5/6/4
f 7/7/5 9/8/6 8/9/6
f 10/10/7 12/11/8 11/12/8
f 3/2/2 10/10/7 13/13/7
f 6/5/4 1/1/1 14/14/1
f 9/8/6 4/4/3 15/15/3
f 12/11/8 7/7/5 16/16/5
f 2/3/9 13/13/9 17/17/9
f 14/14/9 19/18/9 18/19/9
f 8/9/9 15/15/9 20/20/9
f 16/16/9 22/21/9 21/22/9
f 14/14/9 2/3/9 23/23/9
f 15/15/9 5/6/9 18/19/9
f 16/16/9 8/9/9 24/24/9
f 13/13/9 11/12/9 21/22/9
f 18/19/10 25/25/11 20/20/12
f 24/24/13 25/25/11 22/21/14
f 21/22/15 25/25/11 17/17/16
f 17/17/16 25/25/11 23/23/17
f 19/18/18 25/25/11 18/19/10
f 20/20/12 25/25/11 24/24/13
f 22/21/14 25/25/11 21/22/15
f 23/23/17 25/25/11 19/18/18
f 10/10/9 4/4/9 7/7/9
f 1/1/1 2/3/2 14/14/1
f 4/4/3 5/6/4 15/15/3
f 7/7/5 8/9/6 16/16/5
f 10/10/7 11/12/8 13/13/7
f 3/2/2 13/13/7 2/3/2
f 6/5/4 14/14/1 5/6/4
f 9/8/6 15/15/3 8/9/6
f 12/11/8 16/16/5 11/12/8
f 2/3/9 17/17/9 23/23/9
f 14/14/9 18/19/9 5/6/9
f 8/9/9 20/20/9 24/24/9
f 16/16/9 21/22/9 11/12/9
f 14/14/9 23/23/9 19/18/9
f 15/15/9 18/19/9 20/20/9
f 16/16/9 24/24/9 22/21/9
f 13/13/9 21/22/9 17/17/9
f 10/10/9 7/7/9 12/11/9
f 7/7/9 4/4/9 9/8/9
f 4/4/9 1/1/9 6/5/9
f 1/1/9 4/4/9 3/2/9
f 3/2/9 4/4/9 10/10/9
