# Blender v2.91.2 OBJ File: ''
# www.blender.org
mtllib capsule.mtl
o Roundcube
v 0.577350 -2.077350 -0.577350
v 0.288675 -2.177003 -0.677003
v 0.000000 -2.207107 -0.707107
v -0.288675 -2.177003 -0.677003
v 0.677003 -1.788675 -0.677003
v 0.338502 -1.838502 -0.877971
v 0.000000 -1.853553 -0.935414
v -0.338502 -1.838502 -0.877971
v 0.707107 -1.500000 -0.707107
v 0.707107 1.500000 -0.707107
v 0.353553 -1.500000 -0.935414
v 0.353553 1.500000 -0.935414
v 0.000000 -1.500000 -1.000000
v 0.000000 1.500000 -1.000000
v -0.353553 -1.500000 -0.935414
v -0.353553 1.500000 -0.935414
v 0.677003 1.788675 -0.677003
v 0.338502 1.838502 -0.877971
v 0.000000 1.853553 -0.935414
v -0.338502 1.838502 -0.877971
v -0.577350 -2.077350 -0.577350
v -0.677003 -2.177003 -0.288675
v -0.707107 -2.207107 0.000000
v -0.677003 -2.177003 0.288675
v -0.677003 -1.788675 -0.677003
v -0.877971 -1.838502 -0.338502
v -0.935414 -1.853553 0.000000
v -0.877971 -1.838502 0.338502
v -0.707107 -1.500000 -0.707107
v -0.707107 1.500000 -0.707107
v -0.935414 -1.500000 -0.353553
v -0.935414 1.500000 -0.353553
v -1.000000 -1.500000 0.000000
v -1.000000 1.500000 0.000000
v -0.935414 -1.500000 0.353553
v -0.935414 1.500000 0.353553
v -0.677003 1.788675 -0.677003
v -0.877971 1.838502 -0.338502
v -0.935414 1.853553 0.000000
v -0.877971 1.838502 0.338502
v -0.577350 -2.077350 0.577350
v -0.288675 -2.177003 0.677003
v 0.000000 -2.207107 0.707107
v 0.288675 -2.177003 0.677003
v -0.677003 -1.788675 0.677003
v -0.338502 -1.838502 0.877971
v 0.000000 -1.853553 0.935414
v 0.338502 -1.838502 0.877971
v -0.707107 -1.500000 0.707107
v -0.707107 1.500000 0.707107
v -0.353553 -1.500000 0.935414
v -0.353553 1.500000 0.935414
v 0.000000 -1.500000 1.000000
v 0.000000 1.500000 1.000000
v 0.353553 -1.500000 0.935414
v 0.353553 1.500000 0.935414
v -0.677003 1.788675 0.677003
v -0.338502 1.838502 0.877971
v 0.000000 1.853553 0.935414
v 0.338502 1.838502 0.877971
v 0.577350 -2.077350 0.577350
v 0.677003 -2.177003 0.288675
v 0.707107 -2.207107 0.000000
v 0.677003 -2.177003 -0.288675
v 0.677003 -1.788675 0.677003
v 0.877971 -1.838502 0.338502
v 0.935414 -1.853553 0.000000
v 0.877971 -1.838502 -0.338502
v 0.707107 -1.500000 0.707107
v 0.707107 1.500000 0.707107
v 0.935414 -1.500000 0.353553
v 0.935414 1.500000 0.353553
v 1.000000 -1.500000 0.000000
v 1.000000 1.500000 0.000000
v 0.935414 -1.500000 -0.353553
v 0.935414 1.500000 -0.353553
v 0.677003 1.788675 0.677003
v 0.877971 1.838502 0.338502
v 0.935414 1.853553 0.000000
v 0.877971 1.838502 -0.338502
v 0.338502 -2.377971 0.338502
v 0.000000 -2.435414 0.353553
v -0.338502 -2.377971 0.338502
v 0.353553 -2.435414 0.000000
v 0.000000 -2.500000 0.000000
v -0.353553 -2.435414 0.000000
v 0.338502 -2.377971 -0.338502
v 0.000000 -2.435414 -0.353553
v -0.338502 -2.377971 -0.338502
v 0.577350 2.077350 -0.577350
v 0.288675 2.177003 -0.677003
v 0.000000 2.207107 -0.707107
v -0.288675 2.177003 -0.677003
v -0.577350 2.077350 -0.577350
v 0.677003 2.177003 -0.288675
v 0.338502 2.377971 -0.338502
v 0.000000 2.435414 -0.353553
v -0.338502 2.377971 -0.338502
v -0.677003 2.177003 -0.288675
v 0.707107 2.207107 0.000000
v 0.353553 2.435414 0.000000
v 0.000000 2.500000 0.000000
v -0.353553 2.435414 0.000000
v -0.707107 2.207107 0.000000
v 0.677003 2.177003 0.288675
v 0.338502 2.377971 0.338502
v 0.000000 2.435414 0.353553
v -0.338502 2.377971 0.338502
v -0.677003 2.177003 0.288675
v 0.577350 2.077350 0.577350
v 0.288675 2.177003 0.677003
v 0.000000 2.207107 0.707107
v -0.288675 2.177003 0.677003
v -0.577350 2.077350 0.577350
vn 0.5773 -0.5773 -0.5773
vn 0.3405 -0.3405 -0.8764
vn 0.6781 -0.2835 -0.6781
vn 0.2835 -0.6781 -0.6781
vn 0.0000 -0.3615 -0.9324
vn -0.2835 -0.6781 -0.6781
vn 0.0000 -0.7071 -0.7071
vn -0.5773 -0.5773 -0.5773
vn -0.3405 -0.3405 -0.8764
vn 0.3636 -0.0831 -0.9278
vn 0.7052 -0.0724 -0.7052
vn 0.0000 -0.0881 -0.9961
vn -0.6781 -0.2835 -0.6781
vn -0.3636 -0.0831 -0.9278
vn 0.7052 0.0724 -0.7052
vn 0.3636 0.0831 -0.9278
vn 0.0000 0.0881 -0.9961
vn -0.7052 -0.0724 -0.7052
vn -0.3636 0.0831 -0.9278
vn 0.6781 0.2835 -0.6781
vn 0.3405 0.3405 -0.8764
vn -0.3405 0.3405 -0.8764
vn 0.0000 0.3615 -0.9324
vn -0.6781 0.2835 -0.6781
vn 0.5773 0.5773 -0.5773
vn 0.2835 0.6781 -0.6781
vn -0.2835 0.6781 -0.6781
vn 0.0000 0.7071 -0.7071
vn -0.5773 0.5773 -0.5773
vn -0.8764 -0.3405 -0.3405
vn -0.6781 -0.6781 -0.2835
vn -0.9324 -0.3615 0.0000
vn -0.6781 -0.6781 0.2835
vn -0.7071 -0.7071 0.0000
vn -0.5773 -0.5773 0.5773
vn -0.8764 -0.3405 0.3405
vn -0.9278 -0.0831 -0.3636
vn -0.9961 -0.0881 0.0000
vn -0.6781 -0.2835 0.6781
vn -0.9278 -0.0831 0.3636
vn -0.7052 0.0724 -0.7052
vn -0.9278 0.0831 -0.3636
vn -0.9961 0.0881 0.0000
vn -0.7052 -0.0724 0.7052
vn -0.9278 0.0831 0.3636
vn -0.8764 0.3405 -0.3405
vn -0.8764 0.3405 0.3405
vn -0.9324 0.3615 0.0000
vn -0.6781 0.2835 0.6781
vn -0.6781 0.6781 -0.2835
vn -0.6781 0.6781 0.2835
vn -0.7071 0.7071 0.0000
vn -0.5773 0.5773 0.5773
vn -0.3405 -0.3405 0.8764
vn -0.2835 -0.6781 0.6781
vn 0.0000 -0.3615 0.9324
vn 0.2835 -0.6781 0.6781
vn 0.0000 -0.7071 0.7071
vn 0.5773 -0.5773 0.5773
vn 0.3405 -0.3405 0.8764
vn -0.3636 -0.0831 0.9278
vn 0.0000 -0.0881 0.9961
vn 0.6781 -0.2835 0.6781
vn 0.3636 -0.0831 0.9278
vn -0.7052 0.0724 0.7052
vn -0.3636 0.0831 0.9278
vn 0.0000 0.0881 0.9961
vn 0.7052 -0.0724 0.7052
vn 0.3636 0.0831 0.9278
vn -0.3405 0.3405 0.8764
vn 0.3405 0.3405 0.8764
vn 0.0000 0.3615 0.9324
vn 0.6781 0.2835 0.6781
vn -0.2835 0.6781 0.6781
vn 0.2835 0.6781 0.6781
vn 0.0000 0.7071 0.7071
vn 0.5773 0.5773 0.5773
vn 0.8764 -0.3405 0.3405
vn 0.6781 -0.6781 0.2835
vn 0.9324 -0.3615 0.0000
vn 0.6781 -0.6781 -0.2835
vn 0.7071 -0.7071 0.0000
vn 0.8764 -0.3405 -0.3405
vn 0.9278 -0.0831 0.3636
vn 0.9961 -0.0881 0.0000
vn 0.9278 -0.0831 -0.3636
vn 0.7052 0.0724 0.7052
vn 0.9278 0.0831 0.3636
vn 0.9961 0.0881 0.0000
vn 0.9278 0.0831 -0.3636
vn 0.8764 0.3405 0.3405
vn 0.8764 0.3405 -0.3405
vn 0.9324 0.3615 0.0000
vn 0.6781 0.6781 0.2835
vn 0.6781 0.6781 -0.2835
vn 0.7071 0.7071 0.0000
vn 0.3405 -0.8764 0.3405
vn 0.0000 -0.9324 0.3615
vn -0.3405 -0.8764 0.3405
vn 0.3615 -0.9324 0.0000
vn 0.0000 -1.0000 0.0000
vn -0.3615 -0.9324 0.0000
vn 0.3405 -0.8764 -0.3405
vn -0.3405 -0.8764 -0.3405
vn 0.0000 -0.9324 -0.3615
vn 0.3405 0.8764 -0.3405
vn 0.0000 0.9324 -0.3615
vn -0.3405 0.8764 -0.3405
vn 0.3615 0.9324 0.0000
vn 0.0000 1.0000 0.0000
vn -0.3615 0.9324 0.0000
vn 0.3405 0.8764 0.3405
vn -0.3405 0.8764 0.3405
vn 0.0000 0.9324 0.3615
usemtl None
s 1
f 1//1 6//2 5//3
f 2//4 7//5 6//2
f 4//6 7//5 3//7
f 21//8 8//9 4//6
f 5//3 11//10 9//11
f 6//2 13//12 11//10
f 8//9 13//12 7//5
f 25//13 15//14 8//9
f 11//10 10//15 9//11
f 13//12 12//16 11//10
f 15//14 14//17 13//12
f 29//18 16//19 15//14
f 12//16 17//20 10//15
f 14//17 18//21 12//16
f 14//17 20//22 19//23
f 16//19 37//24 20//22
f 18//21 90//25 17//20
f 19//23 91//26 18//21
f 19//23 93//27 92//28
f 20//22 94//29 93//27
f 21//8 26//30 25//13
f 22//31 27//32 26//30
f 24//33 27//32 23//34
f 41//35 28//36 24//33
f 25//13 31//37 29//18
f 26//30 33//38 31//37
f 28//36 33//38 27//32
f 45//39 35//40 28//36
f 31//37 30//41 29//18
f 33//38 32//42 31//37
f 35//40 34//43 33//38
f 49//44 36//45 35//40
f 32//42 37//24 30//41
f 34//43 38//46 32//42
f 34//43 40//47 39//48
f 36//45 57//49 40//47
f 38//46 94//29 37//24
f 39//48 99//50 38//46
f 39//48 109//51 104//52
f 40//47 114//53 109//51
f 41//35 46//54 45//39
f 42//55 47//56 46//54
f 44//57 47//56 43//58
f 61//59 48//60 44//57
f 45//39 51//61 49//44
f 46//54 53//62 51//61
f 48//60 53//62 47//56
f 65//63 55//64 48//60
f 51//61 50//65 49//44
f 53//62 52//66 51//61
f 55//64 54//67 53//62
f 69//68 56//69 55//64
f 52//66 57//49 50//65
f 54//67 58//70 52//66
f 54//67 60//71 59//72
f 56//69 77//73 60//71
f 58//70 114//53 57//49
f 59//72 113//74 58//70
f 59//72 111//75 112//76
f 60//71 110//77 111//75
f 61//59 66//78 65//63
f 62//79 67//80 66//78
f 64//81 67//80 63//82
f 1//1 68//83 64//81
f 65//63 71//84 69//68
f 66//78 73//85 71//84
f 68//83 73//85 67//80
f 5//3 75//86 68//83
f 71//84 70//87 69//68
f 73//85 72//88 71//84
f 75//86 74//89 73//85
f 9//11 76//90 75//86
f 72//88 77//73 70//87
f 74//89 78//91 72//88
f 74//89 80//92 79//93
f 76//90 17//20 80//92
f 78//91 110//77 77//73
f 79//93 105//94 78//91
f 79//93 95//95 100//96
f 80//92 90//25 95//95
f 61//59 81//97 62//79
f 44//57 82//98 81//97
f 42//55 82//98 43//58
f 41//35 83//99 42//55
f 62//79 84//100 63//82
f 81//97 85//101 84//100
f 83//99 85//101 82//98
f 24//33 86//102 83//99
f 84//100 64//81 63//82
f 85//101 87//103 84//100
f 85//101 89//104 88//105
f 86//102 22//31 89//104
f 87//103 1//1 64//81
f 88//105 2//4 87//103
f 88//105 4//6 3//7
f 89//104 21//8 4//6
f 90//25 96//106 95//95
f 91//26 97//107 96//106
f 93//27 97//107 92//28
f 94//29 98//108 93//27
f 95//95 101//109 100//96
f 96//106 102//110 101//109
f 98//108 102//110 97//107
f 99//50 103//111 98//108
f 101//109 105//94 100//96
f 102//110 106//112 101//109
f 102//110 108//113 107//114
f 103//111 109//51 108//113
f 106//112 110//77 105//94
f 107//114 111//75 106//112
f 107//114 113//74 112//76
f 108//113 114//53 113//74
f 1//1 2//4 6//2
f 2//4 3//7 7//5
f 4//6 8//9 7//5
f 21//8 25//13 8//9
f 5//3 6//2 11//10
f 6//2 7//5 13//12
f 8//9 15//14 13//12
f 25//13 29//18 15//14
f 11//10 12//16 10//15
f 13//12 14//17 12//16
f 15//14 16//19 14//17
f 29//18 30//41 16//19
f 12//16 18//21 17//20
f 14//17 19//23 18//21
f 14//17 16//19 20//22
f 16//19 30//41 37//24
f 18//21 91//26 90//25
f 19//23 92//28 91//26
f 19//23 20//22 93//27
f 20//22 37//24 94//29
f 21//8 22//31 26//30
f 22//31 23//34 27//32
f 24//33 28//36 27//32
f 41//35 45//39 28//36
f 25//13 26//30 31//37
f 26//30 27//32 33//38
f 28//36 35//40 33//38
f 45//39 49//44 35//40
f 31//37 32//42 30//41
f 33//38 34//43 32//42
f 35//40 36//45 34//43
f 49//44 50//65 36//45
f 32//42 38//46 37//24
f 34//43 39//48 38//46
f 34//43 36//45 40//47
f 36//45 50//65 57//49
f 38//46 99//50 94//29
f 39//48 104//52 99//50
f 39//48 40//47 109//51
f 40//47 57//49 114//53
f 41//35 42//55 46//54
f 42//55 43//58 47//56
f 44//57 48//60 47//56
f 61//59 65//63 48//60
f 45//39 46//54 51//61
f 46//54 47//56 53//62
f 48//60 55//64 53//62
f 65//63 69//68 55//64
f 51//61 52//66 50//65
f 53//62 54//67 52//66
f 55//64 56//69 54//67
f 69//68 70//87 56//69
f 52//66 58//70 57//49
f 54//67 59//72 58//70
f 54//67 56//69 60//71
f 56//69 70//87 77//73
f 58//70 113//74 114//53
f 59//72 112//76 113//74
f 59//72 60//71 111//75
f 60//71 77//73 110//77
f 61//59 62//79 66//78
f 62//79 63//82 67//80
f 64//81 68//83 67//80
f 1//1 5//3 68//83
f 65//63 66//78 71//84
f 66//78 67//80 73//85
f 68//83 75//86 73//85
f 5//3 9//11 75//86
f 71//84 72//88 70//87
f 73//85 74//89 72//88
f 75//86 76//90 74//89
f 9//11 10//15 76//90
f 72//88 78//91 77//73
f 74//89 79//93 78//91
f 74//89 76//90 80//92
f 76//90 10//15 17//20
f 78//91 105//94 110//77
f 79//93 100//96 105//94
f 79//93 80//92 95//95
f 80//92 17//20 90//25
f 61//59 44//57 81//97
f 44//57 43//58 82//98
f 42//55 83//99 82//98
f 41//35 24//33 83//99
f 62//79 81//97 84//100
f 81//97 82//98 85//101
f 83//99 86//102 85//101
f 24//33 23//34 86//102
f 84//100 87//103 64//81
f 85//101 88//105 87//103
f 85//101 86//102 89//104
f 86//102 23//34 22//31
f 87//103 2//4 1//1
f 88//105 3//7 2//4
f 88//105 89//104 4//6
f 89//104 22//31 21//8
f 90//25 91//26 96//106
f 91//26 92//28 97//107
f 93//27 98//108 97//107
f 94//29 99//50 98//108
f 95//95 96//106 101//109
f 96//106 97//107 102//110
f 98//108 103//111 102//110
f 99//50 104//52 103//111
f 101//109 106//112 105//94
f 102//110 107//114 106//112
f 102//110 103//111 108//113
f 103//111 104//52 109//51
f 106//112 111//75 110//77
f 107//114 112//76 111//75
f 107//114 108//113 113//74
f 108//113 109//51 114//53
